<svg width="60" height="56" viewBox="0 0 60 56" fill="none" xmlns="http://www.w3.org/2000/svg">
<ellipse cx="30" cy="28" rx="23" ry="21" fill="#5A0909"/>
<path d="M30 0C13.4317 0 0 12.3276 0 27.5344C0 42.7413 13.4317 55.0688 30 55.0688C46.5683 55.0688 60 42.7413 60 27.5344C60 12.3276 46.5683 0 30 0ZM40.3688 28.994L25.3687 37.5985C25.0652 37.7724 24.7201 37.8598 24.375 37.8598C24.0623 37.8598 23.7492 37.7884 23.4659 37.6439C22.8698 37.3405 22.5 36.7649 22.5 36.1389V18.9299C22.5 18.3039 22.8698 17.7283 23.4659 17.425C24.0619 17.12 24.7907 17.1385 25.3687 17.4704L40.3688 26.0749C40.9167 26.39 41.25 26.9412 41.25 27.5344C41.25 28.1276 40.9167 28.6789 40.3688 28.994Z" fill="white"/>
</svg>
